<svg width="48" height="48" viewBox="0 0 48 48" fill="none" xmlns="http://www.w3.org/2000/svg">
<path d="M29.5888 22.13H28.514C28.0404 22.13 27.6078 22.4233 27.4376 22.8598L27.0073 23.9653L26.088 19.8478C25.9824 19.3755 25.5842 19.0197 25.0979 18.9627C24.6098 18.9041 24.1395 19.1593 23.925 19.5958L22.7197 22.0454H21.6787C21.0431 22.0454 20.5259 22.5558 20.5259 23.1831C20.5259 23.8107 21.0431 24.3211 21.6787 24.3211H23.4412C23.8801 24.3211 24.2871 24.0695 24.4783 23.6801L24.5498 23.535L25.5813 28.1531C25.6915 28.6476 26.1097 29.0053 26.6193 29.0431C26.6485 29.0454 26.6784 29.0464 26.7076 29.0464C27.1808 29.0464 27.6134 28.7531 27.7836 28.3165L29.3061 24.4057H29.5888C30.2244 24.4057 30.7416 23.8953 30.7416 23.2677C30.7416 22.6404 30.2244 22.13 29.5888 22.13Z" fill="black"/>
<path d="M31.1497 12H29.136H22.1321H20.1186H16.85C15.7638 12 14.8799 12.8714 14.8799 13.9424V34.0576C14.8799 35.1286 15.7638 36 16.85 36H20.1186H31.1497C32.236 36 33.1199 35.1286 33.1199 34.0576V31.2415V13.9424C33.1199 12.8714 32.236 12 31.1497 12ZM18.1796 34.3909C18.1818 34.4025 18.1828 34.4144 18.1851 34.426C18.2051 34.5282 18.2345 34.627 18.2701 34.7228C18.2759 34.7384 18.2813 34.7541 18.2875 34.7695C18.3247 34.8623 18.369 34.9512 18.4197 35.0363C18.4286 35.0512 18.4377 35.0658 18.4469 35.0803C18.5002 35.1646 18.5589 35.2448 18.6242 35.3197C18.6279 35.324 18.6305 35.3291 18.6342 35.3333H16.85C16.1341 35.3333 15.5516 34.7611 15.5516 34.0576V13.9424C15.5516 13.2389 16.1341 12.6667 16.85 12.6667H18.6342C18.6305 12.6709 18.6279 12.676 18.6242 12.6803C18.5589 12.7552 18.5002 12.8354 18.4469 12.9196C18.4377 12.9342 18.4286 12.9488 18.4197 12.9637C18.369 13.0488 18.3247 13.1378 18.2875 13.2305C18.2813 13.2459 18.2759 13.2616 18.2701 13.2772C18.2344 13.373 18.2051 13.4717 18.1851 13.5739C18.1828 13.5855 18.1818 13.5975 18.1796 13.6091C18.1605 13.7176 18.1485 13.8286 18.1485 13.9424V31.2415V34.0576C18.1485 34.1715 18.1605 34.2824 18.1796 34.3909ZM27.2447 33.5667C27.2447 34.0174 26.8752 34.384 26.4211 34.384H24.8474C24.3932 34.384 24.0237 34.0174 24.0237 33.5667V33.3412C24.0237 32.8905 24.3932 32.5238 24.8474 32.5238H26.4211C26.8752 32.5238 27.2447 32.8905 27.2447 33.3412V33.5667ZM32.4482 30.9082H18.8202V13.9424C18.8202 13.2389 19.4027 12.6667 20.1186 12.6667H21.9381L22.9536 14.4167C23.1911 14.8262 23.6362 15.0804 24.1143 15.0804H27.154C27.6322 15.0804 28.0773 14.8262 28.3147 14.4167L29.33 12.6667H31.1497C31.8657 12.6667 32.4482 13.2389 32.4482 13.9424V30.9082Z" fill="black"/>
</svg>
