<svg width="18" height="18" viewBox="0 0 18 18" fill="none" xmlns="http://www.w3.org/2000/svg">
<path d="M13.1915 7.59755H12.3854C12.0302 7.59755 11.7058 7.81752 11.5781 8.14491L11.2554 8.97401L10.5659 5.88588C10.4867 5.53163 10.1881 5.26478 9.82327 5.22206C9.45725 5.17811 9.10451 5.36952 8.94364 5.69691L8.03966 7.53407H7.25891C6.7822 7.53407 6.39429 7.91688 6.39429 8.38734C6.39429 8.85804 6.7822 9.24086 7.25891 9.24086H8.58081C8.90994 9.24086 9.2152 9.05214 9.35861 8.76014L9.41223 8.65126L10.1858 12.1149C10.2685 12.4857 10.5821 12.754 10.9644 12.7824C10.9863 12.7841 11.0086 12.7848 11.0305 12.7848C11.3855 12.7848 11.7099 12.5648 11.8376 12.2374L12.9795 9.30433H13.1915C13.6682 9.30433 14.0561 8.92152 14.0561 8.45082C14.0561 7.98036 13.6682 7.59755 13.1915 7.59755Z" fill="#FA5961"/>
<path d="M14.3624 0H12.852H7.59911H6.08903H3.63758C2.82289 0 2.15997 0.653564 2.15997 1.45679V16.5432C2.15997 17.3464 2.82289 18 3.63758 18H6.08903H14.3624C15.1771 18 15.84 17.3464 15.84 16.5432V14.4312V1.45679C15.84 0.653564 15.1771 0 14.3624 0ZM4.63479 16.7932C4.63639 16.8019 4.63719 16.8108 4.63891 16.8195C4.65391 16.8962 4.67593 16.9702 4.70262 17.0421C4.70699 17.0538 4.71104 17.0656 4.71566 17.0771C4.74358 17.1467 4.77684 17.2134 4.81485 17.2772C4.82149 17.2884 4.82832 17.2993 4.83526 17.3102C4.87517 17.3734 4.91927 17.4336 4.96822 17.4898C4.97098 17.493 4.97295 17.4968 4.97572 17.5H3.63758C3.10061 17.5 2.66374 17.0708 2.66374 16.5432V1.45679C2.66374 0.929199 3.10061 0.5 3.63758 0.5H4.97572C4.97295 0.503174 4.97098 0.507019 4.96822 0.510193C4.91927 0.566406 4.87517 0.626526 4.83526 0.689697C4.82832 0.700684 4.82149 0.711609 4.81485 0.722778C4.77684 0.786621 4.74358 0.853333 4.71566 0.922852C4.71104 0.934448 4.70699 0.946167 4.70262 0.957886C4.67587 1.02979 4.65391 1.10376 4.63891 1.18042C4.63719 1.18915 4.63639 1.19812 4.63479 1.20685C4.62046 1.28821 4.61142 1.37146 4.61142 1.45679V14.4312V16.5432C4.61142 16.6286 4.62046 16.7118 4.63479 16.7932ZM11.4336 16.175C11.4336 16.5131 11.1565 16.788 10.8159 16.788H9.63559C9.29497 16.788 9.01787 16.5131 9.01787 16.175V16.0059C9.01787 15.6678 9.29497 15.3928 9.63559 15.3928H10.8159C11.1565 15.3928 11.4336 15.6678 11.4336 16.0059V16.175ZM15.3362 14.1812H5.11519V1.45679C5.11519 0.929199 5.55205 0.5 6.08903 0.5H7.45361L8.21529 1.8125C8.39338 2.11963 8.72718 2.3103 9.08582 2.3103H11.3656C11.7242 2.3103 12.058 2.11963 12.2361 1.8125L12.9976 0.5H14.3624C14.8993 0.5 15.3362 0.929199 15.3362 1.45679V14.1812Z" fill="#FA5961"/>
</svg>
