<svg width="36" height="36" viewBox="0 0 36 36" fill="none" xmlns="http://www.w3.org/2000/svg">
<path d="M12.7837 25.8235C12.5392 26.2471 12.0939 26.4842 11.6366 26.4842C11.4125 26.4842 11.1855 26.4273 10.9779 26.3074C10.3466 25.943 10.1296 25.1329 10.494 24.5016L10.754 24.0513H13.8069L12.7837 25.8235ZM10.2906 22.9937C9.56166 22.9937 8.96863 22.4007 8.96863 21.6718C8.96863 20.9429 9.56166 20.3498 10.2906 20.3498H12.891L16.4579 14.1719L15.4912 12.4975C15.1268 11.8663 15.3438 11.0562 15.975 10.6917C16.6063 10.3273 17.4164 10.5444 17.7809 11.1756L17.9843 11.528L18.1878 11.1757C18.5524 10.5443 19.3625 10.3273 19.9936 10.6918C20.2994 10.8683 20.5182 11.1534 20.6095 11.4945C20.701 11.8355 20.654 12.1918 20.4774 12.4976L15.9439 20.3498H18.8035L20.33 22.9937H10.2906ZM25.6781 22.9937H24.6041L25.4746 24.5016C25.8391 25.1328 25.6221 25.9429 24.9908 26.3073C24.7871 26.4249 24.561 26.4851 24.3319 26.4851C24.2171 26.4851 24.1016 26.47 23.9876 26.4394C23.6465 26.348 23.3615 26.1293 23.1849 25.8234L18.5949 17.8733L20.1213 15.2294L23.0777 20.3498H25.6781C26.407 20.3498 27.0001 20.9429 27.0001 21.6718C27.0001 22.4007 26.407 22.9937 25.6781 22.9937Z" fill="white"/>
</svg>
