<svg width="21" height="24" viewBox="0 0 21 24" fill="none" xmlns="http://www.w3.org/2000/svg">
<g filter="url(#filter0_d)">
<path fill-rule="evenodd" clip-rule="evenodd" d="M6.89993 4.66292C6.88806 4.54213 6.882 4.41975 6.882 4.29609C6.882 2.24352 8.54593 0.57959 10.5985 0.57959C12.6511 0.57959 14.315 2.24352 14.315 4.29609C14.315 4.41975 14.3089 4.54213 14.2971 4.66292H14.3949C15.0466 4.66292 15.6839 4.93891 16.1343 5.39051C16.5955 5.85292 16.8866 6.5311 16.7475 7.30076L16.7463 7.30696L15.5897 13.1465C15.3613 14.2969 14.3785 15.5038 12.9361 15.5038H8.1497C6.84284 15.5038 5.72442 14.4217 5.51567 13.1228L4.52173 7.2798L4.51994 7.26642C4.32399 5.79857 5.6059 4.66292 6.87788 4.66292H6.89993ZM8.38954 4.29609C8.38954 3.07611 9.37852 2.08713 10.5985 2.08713C11.8185 2.08713 12.8075 3.07611 12.8075 4.29609C12.8075 4.4214 12.7971 4.5439 12.7773 4.66292H8.41974C8.3999 4.5439 8.38954 4.4214 8.38954 4.29609ZM7.00383 12.8816L6.0129 7.0563C5.96452 6.63497 6.37486 6.17046 6.87788 6.17046H14.3949C14.6329 6.17046 14.8899 6.27763 15.0669 6.45511C15.2318 6.62047 15.3015 6.8155 15.2649 7.02755L14.111 12.8532C13.9784 13.5211 13.4536 13.9962 12.9361 13.9962H8.1497C7.67875 13.9962 7.11014 13.5497 7.00383 12.8816Z" fill="#242236"/>
</g>
<defs>
<filter id="filter0_d" x="0.5" y="0.57959" width="20.2824" height="22.9242" filterUnits="userSpaceOnUse" color-interpolation-filters="sRGB">
<feFlood flood-opacity="0" result="BackgroundImageFix"/>
<feColorMatrix in="SourceAlpha" type="matrix" values="0 0 0 0 0 0 0 0 0 0 0 0 0 0 0 0 0 0 127 0"/>
<feOffset dy="4"/>
<feGaussianBlur stdDeviation="2"/>
<feColorMatrix type="matrix" values="0 0 0 0 0 0 0 0 0 0 0 0 0 0 0 0 0 0 0.25 0"/>
<feBlend mode="normal" in2="BackgroundImageFix" result="effect1_dropShadow"/>
<feBlend mode="normal" in="SourceGraphic" in2="effect1_dropShadow" result="shape"/>
</filter>
</defs>
</svg>
