<svg viewBox="0 0 10 13" fill="none" xmlns="http://www.w3.org/2000/svg">
<path fill-rule="evenodd" clip-rule="evenodd" d="M1.91994 3.33038C1.91045 3.23375 1.9056 3.13585 1.9056 3.03692C1.9056 1.39487 3.23675 0.0637207 4.8788 0.0637207C6.52085 0.0637207 7.852 1.39487 7.852 3.03692C7.852 3.13585 7.84715 3.23375 7.83766 3.33038H7.91594C8.43724 3.33038 8.94709 3.55117 9.30743 3.91246C9.67639 4.28238 9.90927 4.82493 9.79797 5.44066L9.79708 5.44562L8.87176 10.1172C8.68904 11.0375 7.90279 12.0031 6.7489 12.0031H2.91976C1.87427 12.0031 0.979537 11.1374 0.812534 10.0983L0.0173818 5.42389L0.0159539 5.41319C-0.140805 4.23891 0.88472 3.33038 1.9023 3.33038H1.91994ZM3.11163 3.03692C3.11163 2.06094 3.90282 1.26975 4.8788 1.26975C5.85478 1.26975 6.64597 2.06094 6.64597 3.03692C6.64597 3.13717 6.63768 3.23517 6.62181 3.33038H3.13579C3.11992 3.23517 3.11163 3.13717 3.11163 3.03692ZM2.00307 9.9053L1.21032 5.24509C1.17162 4.90802 1.49989 4.53641 1.9023 4.53641H7.91594C8.10633 4.53641 8.31192 4.62215 8.45353 4.76414C8.58548 4.89643 8.64124 5.05245 8.61189 5.22209L7.68876 9.88263C7.58268 10.4169 7.16286 10.797 6.7489 10.797H2.91976C2.543 10.797 2.08811 10.4398 2.00307 9.9053Z" fill="black"/>
</svg>
