<svg width="36" height="36" viewBox="0 0 36 36" fill="none" xmlns="http://www.w3.org/2000/svg">
<path fill-rule="evenodd" clip-rule="evenodd" d="M13.6023 15.5833C13.6023 13.1901 15.3881 11.25 17.591 11.25C19.7938 11.25 21.5796 13.1901 21.5796 15.5833H21.8864C22.9031 15.5833 23.7273 16.4788 23.7273 17.5833L22.5 24.25C22.5 25.3546 21.6758 26.25 20.6591 26.25H14.5228C13.5061 26.25 12.6819 25.3546 12.6819 24.25L11.4546 17.5833C11.4546 16.4788 12.2788 15.5833 13.2955 15.5833H13.6023ZM19.7387 15.5833C19.7387 14.2947 18.7771 13.25 17.591 13.25C16.4048 13.25 15.4432 14.2947 15.4432 15.5833H19.7387Z" fill="black"/>
</svg>
