<svg width="20" height="20" style="margin-right: 0" viewBox="0 0 18 18" fill="none" xmlns="http://www.w3.org/2000/svg">
<path fill-rule="evenodd" clip-rule="evenodd" d="M15.75 12.75C15.336 12.75 15 12.4132 15 12C15 11.5868 15.336 11.25 15.75 11.25C16.164 11.25 16.5 11.5868 16.5 12C16.5 12.4132 16.164 12.75 15.75 12.75ZM9 12.75H7.84125C7.737 12.75 7.5 12.4665 7.5 12C7.5 11.5335 7.737 11.25 7.84125 11.25H13.6282C13.6057 11.3145 13.593 11.3835 13.5757 11.4503C13.5652 11.493 13.551 11.5335 13.5427 11.5778C13.5165 11.7143 13.5 11.8552 13.5 12C13.5 12.1448 13.5165 12.2857 13.5427 12.4222C13.551 12.4665 13.5652 12.507 13.5757 12.5497C13.593 12.6165 13.6057 12.6855 13.6282 12.75H9ZM17.25 0H9.75V9.75H8.25V0H0.75C0.33525 0 0 0.336 0 0.75V17.25C0 17.664 0.33525 18 0.75 18H9C9.41475 18 9.75 17.664 9.75 17.25V14.25H15.75C16.9905 14.25 18 13.2405 18 12V0.75C18 0.336 17.6647 0 17.25 0Z" fill="#FFFFFF"/>
</svg>
