<svg width="95" height="20" viewBox="0 0 95 20" fill="none" xmlns="http://www.w3.org/2000/svg">
<path d="M27.0904 4.03655C27.0904 3.85451 27.237 3.70694 27.4179 3.70694H32.3309C32.5118 3.70694 32.6584 3.85451 32.6584 4.03655V19.4421C32.6584 19.6242 32.5118 19.7718 32.3309 19.7718H27.4179C27.237 19.7718 27.0904 19.6242 27.0904 19.4421V4.03655Z" fill="#FA5961"/>
<path d="M92.2156 0.0531005L87.1994 1.31407C87.1641 1.32294 87.1393 1.35486 87.1393 1.39148V3.88403C87.1393 3.9281 87.1038 3.96382 87.0601 3.96382H84.6512C84.5782 3.96382 84.5191 4.02336 84.5191 4.09681V9.10014C84.5191 9.17359 84.5782 9.23313 84.6512 9.23313H87.0601C87.1038 9.23313 87.1393 9.26886 87.1393 9.31293V13.1851C87.1131 17.0317 89.8087 19.7718 93.7128 19.7718H94.8679C94.9408 19.7718 95 19.7122 95 19.6388V14.6354C95 14.562 94.9408 14.5028 94.8679 14.4988C93.6147 14.4308 92.3798 13.4013 92.3798 11.8678V9.31293C92.3798 9.26886 92.4153 9.23313 92.459 9.23313H94.8679C94.9408 9.23313 95 9.17359 95 9.10014V4.09681C95 4.02336 94.9408 3.96382 94.8679 3.96382H92.459C92.4153 3.96382 92.3798 3.9281 92.3798 3.88403V0.182127C92.3798 0.0956213 92.299 0.0321404 92.2156 0.0531005Z" fill="#FA5961"/>
<path d="M42.5893 14.7826C42.5575 14.8165 42.5814 14.8723 42.6277 14.8723H47.8884C48.0692 14.8723 48.2158 15.0199 48.2158 15.2019V19.4426C48.2158 19.6247 48.0692 19.7722 47.8884 19.7722H36.0972C35.9164 19.7722 35.7698 19.6247 35.7698 19.4426V14.7981C35.7698 14.714 35.8016 14.6332 35.8589 14.5721L41.3895 8.662C41.4213 8.62806 41.3974 8.57233 41.351 8.57233H36.0972C35.9164 8.57233 35.7698 8.42476 35.7698 8.24272V4.00198C35.7698 3.81994 35.9164 3.67237 36.0972 3.67237H47.8884C48.0692 3.67237 48.2158 3.81994 48.2158 4.00198V8.64294C48.2158 8.72698 48.1839 8.80785 48.1267 8.86901L42.5893 14.7826Z" fill="#FA5961"/>
<path d="M71.5754 4.0969C71.5754 4.02345 71.6345 3.96391 71.7075 3.96391H76.8158V5.52651C77.5136 4.92838 79.4318 3.99691 81.9237 3.96477C81.9967 3.96383 82.0563 4.02311 82.0563 4.09655V9.12265C82.0563 9.18709 82.0105 9.24118 81.9481 9.25523C80.708 9.53406 76.8027 10.694 76.8027 15.8166V19.6389C76.8027 19.7123 76.7436 19.7718 76.6706 19.7718H71.7075C71.6345 19.7718 71.5754 19.7123 71.5754 19.6389V4.0969Z" fill="#FA5961"/>
<path fill-rule="evenodd" clip-rule="evenodd" d="M63.4161 18.0697L63.5396 18.1786C64.6647 19.1708 66.1958 19.7516 67.9939 19.7516H68.7836C68.9645 19.7516 69.1111 19.6042 69.1111 19.4223V15.057C69.1111 14.8846 68.9784 14.7434 68.8098 14.712C67.5634 14.4798 66.4272 13.4031 66.4272 11.8578V4.29324C66.4272 4.11136 66.2805 3.96391 66.0996 3.96391H61.7894C61.6085 3.96391 61.4618 4.11136 61.4618 4.29324V4.38875L61.0191 4.25372C60.1511 4.02319 59.471 3.96391 58.5397 3.96391C54.1983 3.96391 50.679 7.50264 50.679 11.8679C50.679 16.2331 54.1983 19.7718 58.5397 19.7718C60.3227 19.7718 61.9665 19.1752 63.2852 18.1695L63.4161 18.0697ZM61.316 9.446C61.4049 9.48161 61.4618 9.56902 61.4618 9.66532V11.8578C61.4618 13.46 60.1701 14.7589 58.5766 14.7589C56.9831 14.7589 55.6913 13.46 55.6913 11.8578C55.6913 10.2555 56.9461 8.9566 58.5766 8.9566C59.5255 8.9566 60.4341 9.09264 61.316 9.446Z" fill="#FA5961"/>
<path d="M23.4554 6.29153L25.0814 5.49212C25.1536 5.45578 25.1536 5.41944 25.1536 5.38311C25.1536 5.38311 25.1536 5.31043 25.0814 5.27409L23.4554 4.47468C23.3832 4.43834 23.2748 4.36567 23.2387 4.25666L22.4438 2.62149C22.4076 2.54881 22.3715 2.54881 22.3354 2.54881C22.3354 2.54881 22.2631 2.54881 22.227 2.62149L21.4321 4.25666C21.396 4.32933 21.3237 4.43834 21.2153 4.47468L19.5894 5.27409C19.5171 5.31043 19.5171 5.34677 19.5171 5.38311C19.5171 5.38311 19.5171 5.45578 19.5894 5.49212L21.2153 6.29153C21.2876 6.32787 21.396 6.40054 21.4321 6.50956L22.227 8.14473C22.2631 8.2174 22.2992 8.2174 22.3354 8.2174C22.3354 8.2174 22.4076 8.2174 22.4438 8.14473L23.2387 6.50956C23.2748 6.43688 23.347 6.32787 23.4554 6.29153Z" fill="#FA5961"/>
<path d="M0.0685866 4.73723L6.9687 19.2395C7.44519 20.1275 8.48288 20.0041 9.03913 18.9527L11.165 14.4228C11.2775 14.1435 11.2668 13.8287 11.1363 13.5823L8.00744 6.97567C7.79473 6.56819 7.61943 6.21208 7.46638 5.90118C6.6249 4.1918 6.45612 3.84894 4.4409 3.84894H0.528601C0.133994 3.84894 -0.132213 4.36298 0.0685866 4.73723Z" fill="#FA5961"/>
<path d="M9.81349 4.73723L16.7136 19.2395C17.1901 20.1275 18.2566 20.0041 18.784 18.9527L20.9099 14.4228C21.0224 14.1435 21.0117 13.8287 20.8812 13.5823L17.7523 6.97567C17.5397 6.56825 17.3644 6.21218 17.2113 5.90131C16.3699 4.19193 16.201 3.84894 14.1858 3.84894H10.2735C9.8789 3.84894 9.61269 4.36298 9.81349 4.73723Z" fill="#FA5961"/>
</svg>
