<svg width="26" height="18" viewBox="0 0 26 18" fill="none" xmlns="http://www.w3.org/2000/svg">
<path d="M23.4554 3.74272L25.0814 2.9433C25.1536 2.90697 25.1536 2.87063 25.1536 2.83429C25.1536 2.83429 25.1536 2.76162 25.0814 2.72528L23.4554 1.92587C23.3832 1.88953 23.2748 1.81685 23.2387 1.70784L22.4438 0.0726738C22.4076 -3.35276e-07 22.3715 0 22.3354 0C22.3354 0 22.2631 -3.35276e-07 22.227 0.0726738L21.4321 1.70784C21.396 1.78052 21.3237 1.88953 21.2153 1.92587L19.5894 2.72528C19.5171 2.76162 19.5171 2.79796 19.5171 2.83429C19.5171 2.83429 19.5171 2.90697 19.5894 2.9433L21.2153 3.74272C21.2876 3.77906 21.396 3.85173 21.4321 3.96074L22.227 5.59591C22.2631 5.66859 22.2992 5.66859 22.3354 5.66859C22.3354 5.66859 22.4076 5.66859 22.4438 5.59591L23.2387 3.96074C23.2748 3.88807 23.347 3.77906 23.4554 3.74272Z" fill="#FA5961"/>
<path d="M0.0685866 2.18842L6.9687 16.6907C7.44519 17.5787 8.48288 17.4553 9.03913 16.4039L11.165 11.874C11.2775 11.5947 11.2668 11.2799 11.1363 11.0335L8.00744 4.42686C7.79473 4.01938 7.61943 3.66327 7.46638 3.35237C6.6249 1.64298 6.45612 1.30012 4.4409 1.30012H0.528601C0.133994 1.30012 -0.132213 1.81417 0.0685866 2.18842Z" fill="#FA5961"/>
<path d="M9.81349 2.18842L16.7136 16.6907C17.1901 17.5787 18.2566 17.4553 18.784 16.4039L20.9099 11.874C21.0224 11.5947 21.0117 11.2799 20.8812 11.0335L17.7523 4.42686C17.5397 4.01944 17.3644 3.66337 17.2113 3.3525C16.3699 1.64312 16.201 1.30012 14.1858 1.30012H10.2735C9.8789 1.30012 9.61269 1.81417 9.81349 2.18842Z" fill="#FA5961"/>
</svg>
