<svg width="36" height="36" viewBox="0 0 36 36" fill="none" xmlns="http://www.w3.org/2000/svg">
<path fill-rule="evenodd" clip-rule="evenodd" d="M14 10C13.4477 10 13 10.4477 13 11C13 11.5523 13.4477 12 14 12H26C26.5523 12 27 11.5523 27 11C27 10.4477 26.5523 10 26 10H14ZM9 18C9 17.4477 9.44772 17 10 17H26C26.5523 17 27 17.4477 27 18C27 18.5523 26.5523 19 26 19H10C9.44772 19 9 18.5523 9 18ZM13 25C13 24.4477 13.4477 24 14 24H26C26.5523 24 27 24.4477 27 25C27 25.5523 26.5523 26 26 26H14C13.4477 26 13 25.5523 13 25Z" fill="#FA5961"/>
</svg>
