<svg width="14" height="14" viewBox="0 0 14 14" fill="none" xmlns="http://www.w3.org/2000/svg">
<path d="M5.35937 8.00995H6.33831V0H2.08955C0.935524 0 0 0.935524 0 2.08955V11.8408C0 13.0333 0.966709 14 2.1592 14H6.33831V12.5373H5.35937V12.5371C5.34905 12.5372 5.33871 12.5373 5.32836 12.5373C4.07816 12.5373 3.06468 11.5238 3.06468 10.2736C3.06468 9.02343 4.07816 8.00995 5.32836 8.00995C5.33871 8.00995 5.34905 8.01002 5.35937 8.01016V8.00995Z" fill="white"/>
<path d="M7.38308 8.00995H12.7422V9.05078C12.0626 9.05078 11.5117 9.60168 11.5117 10.2812C11.5117 10.9608 12.0626 11.5117 12.7422 11.5117C13.4218 11.5117 14 10.9608 14 10.2812V2.08955C14 0.935525 13.0645 0 11.9104 0H7.38308V8.00995Z" fill="white"/>
<path d="M4.12891 10.2812C4.12891 9.60168 4.6798 9.05078 5.35937 9.05078H10.8683C10.608 9.3946 10.4476 9.81783 10.4476 10.2812C10.4476 10.7447 10.6054 11.1487 10.8657 11.4925H5.35679C4.67722 11.4925 4.12891 10.9608 4.12891 10.2812Z" fill="white"/>
</svg>
