<svg width="28" height="28" viewBox="0 0 28 28" fill="none" xmlns="http://www.w3.org/2000/svg">
<path d="M21.6889 10.4728L22.838 9.89716C22.8891 9.871 22.8891 9.84483 22.8891 9.81867C22.8891 9.81867 22.8891 9.76634 22.838 9.74018L21.6889 9.16455C21.6378 9.13839 21.5612 9.08606 21.5357 9.00757L20.9739 7.83016C20.9483 7.77783 20.9228 7.77783 20.8973 7.77783C20.8973 7.77783 20.8462 7.77783 20.8206 7.83016L20.2588 9.00757C20.2333 9.0599 20.1822 9.13839 20.1056 9.16455L18.9565 9.74018C18.9054 9.76634 18.9054 9.79251 18.9054 9.81867C18.9054 9.81867 18.9054 9.871 18.9565 9.89716L20.1056 10.4728C20.1567 10.4989 20.2333 10.5513 20.2588 10.6298L20.8206 11.8072C20.8462 11.8595 20.8717 11.8595 20.8973 11.8595C20.8973 11.8595 20.9483 11.8595 20.9739 11.8072L21.5357 10.6298C21.5612 10.5774 21.6123 10.4989 21.6889 10.4728Z" fill="#CBBDB3"/>
<path d="M5.1598 9.3536L10.0366 19.796C10.3734 20.4354 11.1068 20.3465 11.4999 19.5895L13.0024 16.3277C13.0819 16.1266 13.0743 15.8999 12.9821 15.7225L10.7707 10.9654C10.6204 10.672 10.4965 10.4156 10.3883 10.1917C9.7936 8.96086 9.67431 8.71399 8.25002 8.71399H5.48493C5.20603 8.71399 5.01788 9.08413 5.1598 9.3536Z" fill="#CBBDB3"/>
<path d="M12.0472 9.3536L16.924 19.796C17.2607 20.4354 18.0145 20.3465 18.3873 19.5895L19.8898 16.3277C19.9693 16.1266 19.9617 15.8999 19.8695 15.7225L17.6581 10.9654C17.5078 10.672 17.3839 10.4156 17.2758 10.1918C16.681 8.96096 16.5617 8.71399 15.1374 8.71399H12.3723C12.0934 8.71399 11.9053 9.08413 12.0472 9.3536Z" fill="#CBBDB3"/>
</svg>
