<svg width="233" height="49" viewBox="0 0 233 49" fill="none" xmlns="http://www.w3.org/2000/svg">
<path d="M66.2673 9.12575C66.2673 9.04366 66.3339 8.97711 66.416 8.97711H79.7387C79.8208 8.97711 79.8873 9.04366 79.8873 9.12575V47.8482C79.8873 47.9302 79.8208 47.9968 79.7387 47.9968H66.416C66.3339 47.9968 66.2673 47.9302 66.2673 47.8482V9.12575Z" fill="white"/>
<path d="M104.011 36.0546C103.996 36.0699 104.007 36.0951 104.028 36.0951H117.793C117.875 36.0951 117.941 36.1616 117.941 36.2437V47.8479C117.941 47.93 117.875 47.9966 117.793 47.9966H87.6452C87.5631 47.9966 87.4966 47.93 87.4966 47.8479V35.6561C87.4966 35.6182 87.5111 35.5817 87.537 35.5542L101.41 20.8336C101.425 20.8183 101.414 20.7932 101.393 20.7932H87.6452C87.5631 20.7932 87.4966 20.7266 87.4966 20.6445V9.04033C87.4966 8.95824 87.5631 8.89169 87.6452 8.89169H117.793C117.875 8.89169 117.941 8.95824 117.941 9.04033V21.2235C117.941 21.2614 117.927 21.2979 117.901 21.3254L104.011 36.0546Z" fill="white"/>
<path d="M225.899 0.0185942L213.182 3.19284C213.166 3.19684 213.155 3.21123 213.155 3.22775V9.56296C213.155 9.58283 213.139 9.59894 213.119 9.59894H206.806C206.772 9.59894 206.746 9.62579 206.746 9.65891V22.3376C206.746 22.3707 206.772 22.3975 206.806 22.3975H213.119C213.139 22.3975 213.155 22.4136 213.155 22.4335V31.9965C213.091 41.3394 219.685 47.9947 229.235 47.9947H232.323C232.356 47.9947 232.383 47.9678 232.383 47.9347V35.2561C232.383 35.223 232.356 35.1961 232.323 35.1958C229.17 35.164 225.974 32.6281 225.974 28.7968V22.4335C225.974 22.4136 225.99 22.3975 226.01 22.3975H232.323C232.356 22.3975 232.383 22.3707 232.383 22.3376V9.65891C232.383 9.62579 232.356 9.59894 232.323 9.59894H226.01C225.99 9.59894 225.974 9.58283 225.974 9.56296V0.0767796C225.974 0.0377736 225.937 0.0091479 225.899 0.0185942Z" fill="white"/>
<path d="M175.081 9.66061V47.9364C175.081 47.9695 175.108 47.9964 175.141 47.9964H187.808C187.841 47.9964 187.868 47.9695 187.868 47.9364V38.3895C187.868 26.9768 197.913 22.9243 200.673 22.4076C200.701 22.4023 200.719 22.3801 200.719 22.351V9.66003C200.719 9.62691 200.691 9.60063 200.658 9.60071C194.435 9.61555 189.631 11.9223 187.9 13.396V9.60064H175.141C175.108 9.60064 175.081 9.62749 175.081 9.66061Z" fill="white"/>
<path fill-rule="evenodd" clip-rule="evenodd" d="M155.123 43.862L155.425 44.1266C158.177 46.5366 161.922 47.9472 166.321 47.9472H168.252C168.695 47.9472 169.054 47.5891 169.054 47.1473V36.5446C169.054 36.1259 168.729 35.7828 168.317 35.7065C165.268 35.1426 162.488 32.5274 162.488 28.7739V10.4005C162.488 9.95877 162.13 9.60064 161.687 9.60064H151.144C150.701 9.60064 150.342 9.95877 150.342 10.4006V10.6325L149.259 10.3046C147.136 9.74462 145.473 9.60064 143.194 9.60064C132.575 9.60064 123.966 18.1958 123.966 28.7985C123.966 39.4012 132.575 47.9964 143.194 47.9964C147.556 47.9964 151.577 46.5472 154.803 44.1045L155.123 43.862ZM150.276 23.0351C150.316 23.052 150.342 23.0913 150.342 23.1347V28.7739C150.342 32.6657 147.183 35.8205 143.285 35.8205C139.387 35.8205 136.227 32.6657 136.227 28.7739C136.227 24.8822 139.296 21.7273 143.285 21.7273C145.711 21.7273 148.028 22.0882 150.276 23.0351Z" fill="white"/>
<path d="M0.167772 11.4799L17.0463 46.7043C18.2119 48.8614 20.7502 48.5615 22.1109 46.0079L27.311 35.0051C27.5863 34.3267 27.56 33.5621 27.2408 32.9636L19.5872 16.9169C16.2061 10.4855 16.6891 9.32238 10.863 9.32238H1.29303C0.327767 9.32238 -0.323409 10.5709 0.167772 11.4799Z" fill="white"/>
<path d="M24.0051 11.4799L40.8836 46.7043C42.0492 48.8614 44.658 48.5615 45.9481 46.0079L51.1482 35.0051C51.4235 34.3267 51.3973 33.5621 51.0781 32.9636L43.4245 16.9169C40.0433 10.4855 40.5264 9.32238 34.7003 9.32238H25.1303C24.165 9.32238 23.5139 10.5709 24.0051 11.4799Z" fill="white"/>
<path d="M61.3522 13.3135L57.375 15.2552C57.1098 15.3434 56.9331 15.6082 56.8447 15.7847L54.9003 19.7564C54.8119 19.9329 54.6352 19.9329 54.6352 19.9329C54.5468 19.9329 54.4584 19.9329 54.37 19.7564L52.4256 15.7847C52.3372 15.52 52.0721 15.3434 51.8953 15.2552L47.9181 13.3135C47.7414 13.2252 47.7414 13.0487 47.7414 13.0487C47.7414 12.9605 47.7414 12.8722 47.9181 12.7839L51.8953 10.8422C52.1605 10.754 52.3372 10.4892 52.4256 10.3127L54.37 6.34104C54.4584 6.16452 54.6352 6.16452 54.6352 6.16452C54.7235 6.16452 54.8119 6.16452 54.9003 6.34104L56.8447 10.3127C56.9331 10.5775 57.1982 10.754 57.375 10.8422L61.3522 12.7839C61.5289 12.8722 61.5289 13.0487 61.5289 13.0487C61.5289 13.137 61.5289 13.2252 61.3522 13.3135Z" fill="white"/>
</svg>
